<svg width="19" height="17" viewBox="0 0 19 17" fill="none" xmlns="http://www.w3.org/2000/svg">
<path d="M4.00005 17L5.00005 17L14.4301 17C15.5001 17 16.4101 16.33 16.6201 15.39L17.9601 9.39C18.2301 8.15 17.1801 7 15.7701 7L11.5401 7L13.0601 2.06C13.3801 1.03 12.5401 4.77548e-07 11.3801 5.78958e-07C10.8001 6.29663e-07 10.2401 0.24 9.86005 0.65L4.00005 7L5.25315e-05 7L5.34058e-05 17L4.00005 17ZM10.6001 1.33C10.7901 1.12 11.0801 1 11.3801 1C11.6401 1 11.8801 1.11 12.0101 1.3C12.0801 1.4 12.1601 1.56 12.1001 1.77L10.5801 6.71L10.1801 8L11.5401 8L15.7701 8C16.1801 8 16.5701 8.17 16.8001 8.46C16.9201 8.61 17.0501 8.86 16.9801 9.18L15.6401 15.18C15.5401 15.65 15.0301 16 14.4301 16L5.00005 16L5.00005 7.39L10.6001 1.33ZM1.00005 8L4.00005 8L4.00005 16L1.00005 16L1.00005 8Z" fill="#0A0A0A"/>
</svg>
